<?xml version="1.0" encoding="UTF-8"?>
<svg width="240" height="200" viewBox="0 0 240 200" fill="none" xmlns="http://www.w3.org/2000/svg">
    <!-- 背景装饰圆圈 -->
    <circle cx="120" cy="100" r="95" fill="#F5F5F5" opacity="0.5"/>
    <circle cx="120" cy="100" r="80" fill="#FAFAFA"/>

    <!-- 公告图标主体 -->
    <g transform="translate(70, 40)">
        <!-- 公告板 -->
        <rect x="10" y="10" width="80" height="100" rx="8" fill="white" stroke="#1890FF" stroke-width="2"/>

        <!-- 装饰线条 -->
        <line x1="25" y1="35" x2="75" y2="35" stroke="#1890FF" stroke-width="2" stroke-linecap="round"/>
        <line x1="25" y1="50" x2="75" y2="50" stroke="#E8E8E8" stroke-width="2" stroke-linecap="round"/>
        <line x1="25" y1="65" x2="75" y2="65" stroke="#E8E8E8" stroke-width="2" stroke-linecap="round"/>
        <line x1="25" y1="80" x2="75" y2="80" stroke="#E8E8E8" stroke-width="2" stroke-linecap="round"/>

        <!-- 顶部装饰 -->
        <rect x="35" y="0" width="30" height="20" rx="4" fill="#1890FF"/>

        <!-- 底部装饰 -->
        <path d="M0 110 L50 120 L100 110" stroke="#E8E8E8" stroke-width="2" fill="none"/>
    </g>

    <!-- 装饰元素 -->
    <g opacity="0.6">
        <circle cx="50" cy="50" r="4" fill="#1890FF"/>
        <circle cx="190" cy="60" r="3" fill="#1890FF"/>
        <circle cx="40" cy="150" r="3" fill="#1890FF"/>
        <circle cx="180" cy="140" r="4" fill="#1890FF"/>
    </g>

    <!-- 波浪装饰 -->
    <path d="M20,160 Q60,140 100,160 T180,160" stroke="#E8E8E8" stroke-width="2" fill="none"/>
    <path d="M40,170 Q80,150 120,170 T200,170" stroke="#F5F5F5" stroke-width="2" fill="none"/>
</svg>
